<?xml version="1.0" encoding="utf-8"?>
<!-- Generator: Adobe Illustrator 26.3.1, SVG Export Plug-In . SVG Version: 6.00 Build 0)  -->
<svg version="1.2" baseProfile="tiny" id="Capa_1" xmlns="http://www.w3.org/2000/svg" xmlns:xlink="http://www.w3.org/1999/xlink"
	 x="0px" y="0px" viewBox="0 0 141.73 141.73" overflow="visible" xml:space="preserve">
<g>
	<path fill="#FFFFFF" d="M36.64,118.24c-0.4-0.14-0.81-0.26-1.21-0.41c-2.74-1.02-4.5-3.57-4.5-6.54c0-14.83,0-29.66,0-44.49
		c0-3.97,3.02-6.95,7.01-6.97c0.39,0,0.79,0,1.3,0c0-0.42,0-0.78,0-1.14c0-9.24-0.01-18.48,0-27.73c0-3.5,2.25-6.24,5.66-6.96
		c0.45-0.09,0.91-0.1,1.37-0.1c16.18-0.01,32.37-0.01,48.55,0c3.95,0,7.02,3.01,7.03,6.97c0.02,10.59,0.01,21.19,0.01,31.78
		c0,1.15-0.5,1.77-1.41,1.77c-0.91,0.01-1.4-0.59-1.4-1.76c-0.01-10.38,0-20.76-0.02-31.13c0-0.78-0.06-1.63-0.36-2.34
		c-0.74-1.78-2.22-2.53-4.11-2.53c-7.59,0-15.17,0-22.76,0c-8.32,0-16.64,0-24.97,0c-3.15,0-4.79,1.62-4.79,4.74
		c0,9.15,0,18.3,0,27.45c0,0.3,0.03,0.6,0.04,0.98c0.4,0,0.73,0,1.06,0c5.31,0,10.63,0.01,15.94,0c2.56-0.01,4.56,1.04,6.01,3.13
		c0.66,0.96,1.33,1.92,1.94,2.91c0.98,1.59,2.39,2.27,4.24,2.26c10.47-0.02,20.94,0.09,31.41-0.05c4.35-0.06,7.56,3.36,7.52,7.47
		c-0.13,11.79-0.04,23.58-0.05,35.37c0,3.74-1.84,6.15-5.48,7.17c-0.08,0.02-0.16,0.09-0.23,0.14
		C81.84,118.24,59.24,118.24,36.64,118.24z M70.5,115.48c10.68,0,21.37,0,32.05,0c3.19,0,4.84-1.64,4.84-4.8c0-11.67,0-23.33,0-35
		c0-3.16-1.65-4.8-4.84-4.8c-10.59,0-21.19,0-31.78,0c-2.38,0-4.27-0.99-5.66-2.89c-0.71-0.96-1.38-1.96-2-2.98
		c-1.04-1.72-2.52-2.45-4.52-2.44c-6.69,0.04-13.39,0.01-20.08,0.02c-3.18,0-4.83,1.64-4.83,4.81c0,14.4,0,28.79,0,43.19
		c0,3.25,1.62,4.88,4.85,4.88C49.19,115.48,59.84,115.48,70.5,115.48z"/>
	<path fill="#FFFFFF" d="M70.5,41.96c-5.65,0-11.29,0-16.94,0c-2.19,0-3.47-1.29-3.47-3.49c0-1.01-0.01-2.03,0-3.04
		c0.02-1.84,1.36-3.23,3.18-3.23c11.51-0.01,23.02-0.01,34.53,0c1.82,0,3.18,1.38,3.2,3.21c0.01,1.1,0.01,2.21,0,3.31
		c-0.02,1.87-1.38,3.23-3.27,3.23C81.98,41.97,76.24,41.96,70.5,41.96z M70.46,39.2c3.22,0,6.45,0,9.67,0
		c2.39,0,4.79-0.01,7.18,0.01c0.67,0.01,0.96-0.24,0.93-0.92c-0.03-0.64-0.01-1.29-0.01-1.93c0-1.4,0-1.4-1.35-1.4
		c-10.9,0-21.79,0-32.69,0c-0.18,0-0.37,0.01-0.55,0c-0.54-0.02-0.79,0.23-0.78,0.77c0.01,0.68,0,1.35,0,2.03
		c0,1.44,0,1.44,1.4,1.44C59.65,39.2,65.05,39.2,70.46,39.2z"/>
	<path fill="#FFFFFF" d="M70.52,50.25c-6.26,0-12.53,0-18.79,0c-1.09,0-1.72-0.59-1.63-1.51c0.07-0.7,0.48-1.11,1.16-1.23
		c0.24-0.04,0.49-0.01,0.74-0.01c12.38,0,24.75,0,37.13,0c0.33,0,0.7-0.03,1,0.09c0.63,0.25,0.96,0.76,0.86,1.46
		c-0.1,0.69-0.51,1.1-1.21,1.19c-0.27,0.04-0.55,0.01-0.83,0.01C82.81,50.25,76.66,50.25,70.52,50.25z"/>
	<path fill="#FFFFFF" d="M70.6,55.78c-6.3,0-12.59,0-18.89,0c-1.21,0-1.95-0.9-1.55-1.88c0.3-0.73,0.91-0.89,1.65-0.89
		c5.68,0.02,11.36,0.01,17.04,0.01c6.82,0,13.64,0.01,20.45-0.01c0.8,0,1.4,0.24,1.64,1.03c0.27,0.92-0.41,1.73-1.46,1.73
		c-2.67,0.01-5.34,0-8.02,0.01C77.85,55.78,74.23,55.78,70.6,55.78z"/>
	<path fill="#FFFFFF" d="M70.56,110.94c-8.87-0.07-16.38-6.59-17.51-15.32c-0.19-1.48-0.14-3-0.07-4.49
		c0.05-1.03,0.7-1.52,1.54-1.44c0.85,0.09,1.37,0.8,1.24,1.82c-0.84,6.62,3.11,12.69,8.57,15.22c9.16,4.23,19.87-1.79,21-11.86
		c0.89-7.92-4.6-15.29-12.41-16.38c-6.33-0.88-11.34,1.46-14.96,6.74c-0.14,0.2-0.26,0.42-0.42,0.61c-0.53,0.61-1.3,0.72-1.89,0.26
		c-0.64-0.51-0.85-1.22-0.35-1.87c1.13-1.48,2.19-3.09,3.58-4.28c5.18-4.45,11.16-5.7,17.6-3.4c6.39,2.29,10.32,6.99,11.5,13.67
		c1.7,9.61-4.69,18.59-14.32,20.41C72.64,110.81,71.59,110.84,70.56,110.94z"/>
	<path fill="#FFFFFF" d="M74.74,97.51c0,1.61,0.01,3.21,0,4.8c-0.01,2.11-0.94,3.03-3.03,3.04c-0.86,0-1.72,0-2.58,0
		c-1.73-0.01-2.73-0.98-2.77-2.73c-0.03-1.41,0-2.82-0.01-4.24c0-0.3-0.03-0.6-0.05-0.99c-1.61,0-3.17-0.05-4.73,0.01
		c-1.88,0.07-3.39-0.92-3.2-3.17c0.06-0.76,0.01-1.53,0.01-2.3c0-1.97,0.95-2.92,2.94-2.93c1.62-0.01,3.25,0,5.02,0
		c0-1.11,0-2.17,0-3.23c0.01-0.83-0.05-1.66,0.05-2.48c0.17-1.45,1.16-2.25,2.65-2.26c0.95-0.01,1.9,0,2.86,0
		c1.79,0.01,2.79,0.97,2.82,2.77c0.03,1.68,0.01,3.37,0.01,5.2c1.18,0,2.31-0.01,3.43,0c0.83,0.01,1.67-0.03,2.48,0.09
		c1.26,0.19,2.04,1.16,2.06,2.44c0.02,0.98,0.01,1.96,0,2.95c0,1.9-0.97,2.88-2.89,2.9c-1.6,0.02-3.19,0.01-4.79,0.02
		C74.97,97.4,74.91,97.44,74.74,97.51z M69.21,83.83c0,1.92,0.01,3.75,0,5.59c-0.01,1.64-0.78,2.41-2.44,2.42
		c-1.11,0.01-2.21,0-3.32,0c-0.75,0-1.5,0-2.25,0c0,0.96,0,1.78,0,2.67c1.95,0,3.85-0.02,5.75,0.01c1.44,0.02,2.2,0.79,2.26,2.22
		c0.02,0.46,0,0.92,0,1.38c0,1.46,0,2.92,0,4.4c0.94,0,1.76,0,2.67,0c0-1.79,0-3.53,0-5.27c0-2.09,0.65-2.73,2.77-2.74
		c1.74,0,3.48,0,5.23,0c0-0.95,0-1.79,0-2.67c-1.82,0-3.57,0-5.32,0c-1.97,0-2.67-0.7-2.67-2.66c0-1.77,0-3.55,0-5.37
		C70.97,83.83,70.15,83.83,69.21,83.83z"/>
</g>
</svg>
