<?xml version="1.0" encoding="utf-8"?>
<!-- Generator: Adobe Illustrator 26.3.1, SVG Export Plug-In . SVG Version: 6.00 Build 0)  -->
<svg version="1.2" baseProfile="tiny" id="Capa_1" xmlns="http://www.w3.org/2000/svg" xmlns:xlink="http://www.w3.org/1999/xlink"
	 x="0px" y="0px" viewBox="0 0 141.73 141.73" overflow="visible" xml:space="preserve">
<g>
	<path fill="#FFFFFF" d="M79.93,23.98c0.79,0.19,1.6,0.36,2.38,0.59c2.48,0.73,4.69,1.96,6.52,3.79c1.97,1.98,3.93,3.96,5.84,6
		c2.8,2.99,4.17,6.59,4.19,10.68c0.03,5.33,0.01,10.67,0.01,16c0,2.03-1.27,3.43-3.13,3.46c-1.88,0.02-3.19-1.4-3.19-3.48
		c-0.01-5.06-0.06-10.12,0.02-15.17c0.05-3.3-1.01-6.03-3.43-8.28c-1.46-1.35-2.84-2.79-4.23-4.22c-2.06-2.13-4.56-3.1-7.5-3.1
		c-11.53,0.01-23.06,0-34.59,0.01c-4.94,0-8.66,2.86-9.69,7.47c-0.19,0.83-0.23,1.7-0.23,2.55c-0.01,20.54-0.01,41.08-0.01,61.62
		c0,4.97,2.82,8.69,7.41,9.74c0.83,0.19,1.7,0.25,2.55,0.25c7.17,0.02,14.35,0.01,21.52,0c1.91,0,3.36,1.34,3.37,3.13
		c0.01,1.78-1.44,3.14-3.35,3.14c-7.36,0-14.72,0.01-22.08,0c-7.92-0.01-14.5-5.76-15.57-13.59c-0.1-0.73-0.16-1.46-0.16-2.19
		c-0.01-20.88-0.01-41.75,0-62.63c0-7.87,5.6-14.37,13.38-15.59c0.14-0.02,0.27-0.11,0.41-0.17C53.57,23.98,66.75,23.98,79.93,23.98
		z"/>
	<path fill="#FFFFFF" d="M70.55,92.98c0-5.18-0.01-10.36,0-15.54c0.01-5.31,3.95-9.44,9.27-9.49c8.55-0.08,17.1-0.06,25.65,0.01
		c4.93,0.04,9,4.23,9.02,9.19c0.03,8.98,0.02,17.96,0,26.94c0,2.14,0.08,4.31-0.21,6.41c-0.59,4.27-4.61,7.64-8.93,7.65
		c-8.55,0.02-17.1,0.02-25.66,0c-4.93-0.01-9.13-4.23-9.15-9.17C70.54,103.64,70.55,98.31,70.55,92.98z M108.22,93.06
		c0-5.06,0-10.11,0-15.17c0-2.5-1.23-3.7-3.74-3.7c-7.94,0.01-15.87,0.02-23.81,0.03c-2.69,0-3.85,1.17-3.85,3.87
		c0,9.96,0,19.92,0,29.87c0,2.76,1.15,3.93,3.89,3.93c7.88,0,15.75,0,23.63,0c2.7,0,3.88-1.17,3.88-3.84
		C108.23,103.05,108.22,98.06,108.22,93.06z"/>
	<path fill="#FFFFFF" d="M51.45,99.38c-3.07,0-6.13,0-9.2,0c-2,0-3.43-1.32-3.44-3.16c0-1.83,1.45-3.18,3.43-3.17
		c6.1,0,12.2,0,18.3,0.01c2.1,0,3.52,1.41,3.42,3.34c-0.09,1.67-1.42,2.97-3.13,2.98C57.71,99.39,54.58,99.38,51.45,99.38z"/>
	<path fill="#FFFFFF" d="M51.7,86.83c-2.97,0-5.95,0.01-8.92,0c-1.51-0.01-2.66-0.8-3.14-2.1c-0.47-1.25-0.16-2.69,0.94-3.46
		c0.61-0.43,1.44-0.76,2.18-0.77c5.98-0.06,11.95-0.04,17.93-0.03c1.87,0,3.26,1.34,3.29,3.12c0.03,1.82-1.35,3.22-3.27,3.24
		C57.71,86.85,54.7,86.83,51.7,86.83z"/>
	<path fill="#FFFFFF" d="M51.74,74.22c-3.06,0-6.13,0.01-9.19-0.01c-1.57-0.01-2.87-1.15-3.07-2.62c-0.22-1.6,0.64-3.01,2.17-3.5
		c0.34-0.11,0.72-0.14,1.08-0.14c6.01-0.01,12.01-0.01,18.02,0c1.87,0,3.24,1.33,3.24,3.13c0,1.8-1.35,3.13-3.23,3.14
		C57.75,74.23,54.74,74.22,51.74,74.22z"/>
	<path fill="#FFFFFF" d="M62.45,52.28c-2.54,0-5.09,0-7.63,0c-2,0-3.41-1.31-3.41-3.17c0-1.87,1.41-3.19,3.39-3.19
		c5.09,0,10.17,0,15.26,0.01c1.38,0,2.43,0.59,3.03,1.84c0.56,1.16,0.39,2.27-0.38,3.28c-0.65,0.86-1.57,1.24-2.64,1.24
		C67.54,52.28,65,52.28,62.45,52.28z"/>
	<path fill="#FFFFFF" d="M92.57,83.6c-1.99,0-3.98,0.01-5.98,0c-1.86-0.02-3.18-1.36-3.16-3.19c0.02-1.74,1.39-3.07,3.2-3.08
		c3.95-0.01,7.91-0.01,11.86,0c1.8,0,3.15,1.35,3.16,3.11c0.01,1.79-1.3,3.14-3.11,3.16C96.55,83.61,94.56,83.6,92.57,83.6z"/>
	<path fill="#FFFFFF" d="M86.27,96.24c-1.7-0.01-3.17-1.47-3.18-3.16c-0.02-1.73,1.51-3.24,3.23-3.21c1.7,0.03,3.16,1.52,3.14,3.21
		C89.45,94.76,87.96,96.24,86.27,96.24z"/>
	<path fill="#FFFFFF" d="M102,93.1c-0.02,1.71-1.49,3.16-3.19,3.14c-1.72-0.03-3.14-1.47-3.14-3.19c0-1.72,1.43-3.17,3.14-3.18
		C100.56,89.85,102.02,91.34,102,93.1z"/>
	<path fill="#FFFFFF" d="M98.83,99.35c1.76-0.01,3.16,1.36,3.17,3.11c0.02,1.74-1.37,3.16-3.11,3.18c-1.81,0.02-3.23-1.38-3.22-3.16
		C95.69,100.74,97.07,99.36,98.83,99.35z"/>
	<path fill="#FFFFFF" d="M86.22,105.64c-1.72-0.02-3.15-1.46-3.14-3.17c0.02-1.76,1.48-3.16,3.28-3.12
		c1.72,0.04,3.15,1.52,3.09,3.22C89.41,104.29,87.97,105.66,86.22,105.64z"/>
</g>
</svg>
