<?xml version="1.0" encoding="utf-8"?>
<!-- Generator: Adobe Illustrator 26.3.1, SVG Export Plug-In . SVG Version: 6.00 Build 0)  -->
<svg version="1.2" baseProfile="tiny" id="Capa_1" xmlns="http://www.w3.org/2000/svg" xmlns:xlink="http://www.w3.org/1999/xlink"
	 x="0px" y="0px" viewBox="0 0 141.73 141.73" overflow="visible" xml:space="preserve">
<g>
	<path fill="#FFFFFF" d="M84.28,91.62c0-1.36-0.01-2.6,0-3.85c0.08-6.09,5.47-11.14,11.53-10.83c6.32,0.32,10.87,5.09,10.88,11.42
		c0,1.04,0,2.08,0,3.26c0.62,0,1.19-0.01,1.76,0c1.87,0.05,3.05,1.17,3.06,3.04c0.03,4.84,0.03,9.68,0,14.51
		c-0.01,1.88-1.26,3.06-3.16,3.07c-8.57,0.01-17.14,0.01-25.72,0c-1.93,0-3.21-1.19-3.22-3.12c-0.04-4.81-0.04-9.62,0-14.42
		c0.02-1.92,1.22-3.04,3.14-3.08C83.09,91.61,83.63,91.62,84.28,91.62z M105.57,97.61c-6.78,0-13.46,0-20.15,0c0,2.92,0,5.77,0,8.64
		c6.75,0,13.43,0,20.15,0C105.57,103.35,105.57,100.51,105.57,97.61z M100.79,91.51c0-1.27,0.06-2.43-0.01-3.59
		c-0.18-2.73-2.26-4.89-4.8-5.06c-2.89-0.19-5.24,1.55-5.69,4.43c-0.21,1.36-0.04,2.78-0.04,4.22
		C93.74,91.51,97.21,91.51,100.79,91.51z"/>
	<path fill="#FFFFFF" d="M91.44,50.47c0,11.38-9.21,20.62-20.57,20.62c-11.39,0-20.59-9.25-20.58-20.7
		c0.01-11.32,9.22-20.49,20.57-20.5C82.25,29.88,91.44,39.07,91.44,50.47z M70.91,65.14c8.13-0.04,14.71-6.68,14.65-14.76
		c-0.06-8.16-6.67-14.6-14.92-14.56c-7.95,0.03-14.51,6.73-14.47,14.75C56.22,58.62,62.86,65.18,70.91,65.14z"/>
	<path fill="#FFFFFF" d="M35.62,106.32c0.47,0,0.86,0,1.25,0c11.6,0,23.2,0,34.8,0.01c0.57,0,1.18,0.02,1.71,0.2
		c1.31,0.44,2.07,1.81,1.88,3.21c-0.18,1.28-1.32,2.35-2.7,2.49c-0.3,0.03-0.61,0.02-0.92,0.02c-12.76,0-25.52,0-38.29,0
		c-2.56,0-3.66-1.07-3.64-3.6c0.03-2.75-0.1-5.53,0.2-8.25c0.88-8.1,4.86-14.44,11.56-19.02c4.35-2.98,9.22-4.43,14.49-4.45
		c5.39-0.02,10.77-0.01,16.16,0c1.52,0,2.51,0.69,2.98,1.98c0.41,1.11,0.15,2.47-0.85,3.14c-0.67,0.45-1.56,0.76-2.35,0.77
		c-5.14,0.07-10.28,0.03-15.42,0.03c-10.11,0-18.25,6.52-20.44,16.37c-0.23,1.04-0.35,2.11-0.41,3.18
		C35.57,103.65,35.62,104.91,35.62,106.32z"/>
</g>
</svg>
